
<svg xmlns="http://www.w3.org/2000/svg" width="590" height="1410" id="path">
<clipPath id="cliPath">
    <path fill="#000000" d="M565.5 139.5a212.082 212.082 0 0 0 7 22c.843 6.553 2.176 12.886 4 19 2.551 20.822 2.551 41.488 0 62 3.845-45.262-4.655-87.929-25.5-128-33.976-52.68-81.976-84.68-144-96-50.202-8.255-100.702-10.755-151.5-7.5a1442.479 1442.479 0 0 0-243 35 30.139 30.139 0 0 0-3 3.5v-7c1.291.237 2.291-.096 3-1A1603.566 1603.566 0 0 1 268.5 7a624.954 624.954 0 0 1 131 7c66.89 9.958 118.057 43.458 153.5 100.5l12.5 25Z" />
    <path fill="#000000" d="M576.5 242.5c-2.624 26.951-9.124 52.951-19.5 78a1002.148 1002.148 0 0 1-18.5 38l-6 7c24.245-39.568 38.411-82.568 42.5-129 4.582-92.961-34.584-159.794-117.5-200.5-30.632-11.593-62.299-18.593-95-21-69.597-4.623-138.93-1.956-208 8a1731.064 1731.064 0 0 0-137 24c-1.829.273-3.329 1.107-4.5 2.5-.833 448.736-.666 897.403.5 1346h-4V49.5a30.139 30.139 0 0 1 3-3.5 1442.479 1442.479 0 0 1 243-35c50.798-3.255 101.298-.755 151.5 7.5 62.024 11.32 110.024 43.32 144 96 20.845 40.071 29.345 82.738 25.5 128Z" />
    <path fill="#000000" d="M532.5 365.5a31131.222 31131.222 0 0 0-22.5 37 126.336 126.336 0 0 0-9.5 19 22.755 22.755 0 0 0-4 5c-.31-1.238-.81-1.238-1.5 0-73.8 139.063-125.133 286.063-154 441-17.151 96.434-15.151 192.43 6 288a1774.291 1774.291 0 0 0 61 234c.678 2.1.511 4.1-.5 6h-394a302111.464 302111.464 0 0 1-.5-1346c1.171-1.393 2.671-2.227 4.5-2.5a1731.064 1731.064 0 0 1 137-24c69.07-9.956 138.403-12.623 208-8 32.701 2.407 64.368 9.407 95 21C540.416 76.706 579.582 143.539 575 236.5c-4.089 46.432-18.255 89.432-42.5 129Z" />
    <path fill="#000000" d="M287.5 14.5a651.566 651.566 0 0 1 116 8.5c59.298 9.686 105.798 39.186 139.5 88.5 25.879 43.256 35.212 89.923 28 140-4.864 34.257-15.53 66.591-32 97-44.442 69.545-82.109 142.878-113 220-38.222 91.67-66.555 186.336-85 284-12.242 64.149-16.576 128.816-13 194a514.267 514.267 0 0 0 5 47 2468.977 2468.977 0 0 0 54 239 3104.483 3104.483 0 0 0 19.5 59.5c-130.526 1.5-261.193 2-392 1.5-.167-447.667 0-895.333.5-1343 89.807-20.663 180.64-32.663 272.5-36Z" />
    <path fill="#000000" d="M425.5 17.5c2.652-.09 4.985.576 7 2-2.652.09-4.985-.576-7-2Z" />
    <path fill="#000000" d="M425.5 17.5c2.015 1.424 4.348 2.09 7 2 6.667 1.224 13.001 3.224 19 6 1.28 1.431 2.947 2.098 5 2 1.28 1.431 2.947 2.098 5 2a113.4 113.4 0 0 0 18 9c20.103 12.928 38.269 28.26 54.5 46 13.63 16.482 24.13 34.815 31.5 55l-12.5-25C517.557 57.458 466.39 23.958 399.5 14a624.954 624.954 0 0 0-131-7 1603.566 1603.566 0 0 0-256 34.5h-3c1.602-1.574 3.602-2.24 6-2 3.281.08 6.281-.587 9-2C115.711 16.704 208.211 5.704 302 4.5a549.627 549.627 0 0 1 88.5 5.5c11.972 1.693 23.639 4.193 35 7.5Z" />
    <path fill="#000000" d="M451.5 25.5c2.053-.098 3.72.569 5 2-2.053.098-3.72-.569-5-2ZM456.5 27.5c2.053-.098 3.72.569 5 2-2.053.098-3.72-.569-5-2ZM461.5 29.5c6.586 1.96 12.586 4.96 18 9a113.4 113.4 0 0 1-18-9ZM24.5 37.5c-2.719 1.413-5.719 2.08-9 2 2.719-1.413 5.719-2.08 9-2Z" />
    <path fill="#000000" d="M479.5 38.5c62.71 36.017 97.21 90.351 103.5 163 3.105 68.676-15.562 130.676-56 186-77.377 134.434-133.377 277.434-168 429-16.245 71.117-23.245 143.117-21 216a603.814 603.814 0 0 0 13 100 1890.484 1890.484 0 0 0 66 259c1.24 5.35-.594 9.19-5.5 11.5-134 .67-268 .67-402 0-2.167-.83-3.667-2.33-4.5-4.5-.667-451-.667-902 0-1353 .66-1.824 1.827-3.157 3.5-4v1355h403c.617-.11 1.117-.44 1.5-1 .667-2.33.667-4.67 0-7-35.428-107.71-61.095-217.71-77-330a676.254 676.254 0 0 1-2.5-66 882.65 882.65 0 0 1 4-77c10.004-76.696 26.671-152.029 50-226a379.706 379.706 0 0 0 12-36c1.238-1.714 1.905-3.714 2-6a185.25 185.25 0 0 0 9-25c1.767-2.292 2.767-4.958 3-8 1.767-2.292 2.767-4.958 3-8 1.767-2.292 2.767-4.958 3-8 1.431-1.28 2.098-2.947 2-5a271.366 271.366 0 0 0 12-30c2.431-3.611 4.097-7.611 5-12a98.215 98.215 0 0 0 9-21c1.793-1.926 2.793-4.259 3-7 2.125-2.588 3.458-5.588 4-9 1.174-1.014 1.84-2.347 2-4 2.125-2.588 3.458-5.588 4-9 3.122-4.581 5.456-9.581 7-15a804.804 804.804 0 0 0 24-48c1.174-1.014 1.84-2.347 2-4 3.093-3.847 5.426-8.18 7-13a3012.033 3012.033 0 0 1 38-63c33.882-54.854 46.548-114.187 38-178-.331-6.659-1.664-12.993-4-19-1.158-7.802-3.491-15.136-7-22-7.37-20.185-17.87-38.518-31.5-55-16.231-17.74-34.397-33.072-54.5-46Z" />
    <path fill="#000000" d="M8.5 41.5h4c-.709.904-1.709 1.237-3 1v1353h402v1H8.5V41.5Z" />
    <path fill="#000000" d="M565.5 139.5c3.509 6.864 5.842 14.198 7 22a212.082 212.082 0 0 1-7-22Z" />
    <path fill="#000000" d="M572.5 161.5c2.336 6.007 3.669 12.341 4 19-1.824-6.114-3.157-12.447-4-19Z" />
    <path fill="#000000" d="M576.5 180.5c8.548 63.813-4.118 123.146-38 178a1002.148 1002.148 0 0 0 18.5-38c10.376-25.049 16.876-51.049 19.5-78 2.551-20.512 2.551-41.178 0-62Z" />
    <path fill="#000000" d="M538.5 358.5a3012.033 3012.033 0 0 0-38 63 126.336 126.336 0 0 1 9.5-19 31131.222 31131.222 0 0 1 22.5-37l6-7Z" />
    <path fill="#000000" d="M500.5 421.5c-1.574 4.82-3.907 9.153-7 13l3-8a22.755 22.755 0 0 1 4-5Z" />
    <path fill="#000000" d="m496.5 426.5-3 8c-.16 1.653-.826 2.986-2 4a402.888 402.888 0 0 0-24 48c-3.122 4.581-5.456 9.581-7 15-2.125 2.588-3.458 5.588-4 9-.16 1.653-.826 2.986-2 4-2.125 2.588-3.458 5.588-4 9-1.793 1.926-2.793 4.259-3 7a98.215 98.215 0 0 0-9 21c-2.431 3.611-4.097 7.611-5 12a163.954 163.954 0 0 0-12 30c.098 2.053-.569 3.72-2 5-1.767 2.292-2.767 4.958-3 8-1.767 2.292-2.767 4.958-3 8-1.767 2.292-2.767 4.958-3 8-3.965 7.889-6.965 16.222-9 25-.095 2.286-.762 4.286-2 6a228.1 228.1 0 0 0-12 36c-24.852 73.421-41.519 148.754-50 226a390.333 390.333 0 0 0-4.5 42c-1.475 21.823-1.641 43.49-.5 65 .608 19.4 2.108 38.73 4.5 58a2099.958 2099.958 0 0 0 75.5 311.5 10.973 10.973 0 0 1-1 3.5h-4c1.011-1.9 1.178-3.9.5-6a1774.291 1774.291 0 0 1-61-234c-21.151-95.57-23.151-191.566-6-288 28.867-154.937 80.2-301.937 154-441 .69-1.238 1.19-1.238 1.5 0Z" />
    <path fill="#000000" d="M491.5 438.5a804.804 804.804 0 0 1-24 48 402.888 402.888 0 0 1 24-48Z" />
    <path fill="#000000" d="M467.5 486.5c-1.544 5.419-3.878 10.419-7 15 1.544-5.419 3.878-10.419 7-15Z" />
    <path fill="#000000" d="M460.5 501.5c-.542 3.412-1.875 6.412-4 9 .542-3.412 1.875-6.412 4-9Z" />
    <path fill="#000000" d="M454.5 514.5c-.542 3.412-1.875 6.412-4 9 .542-3.412 1.875-6.412 4-9Z" />
    <path fill="#000000" d="M450.5 523.5c-.207 2.741-1.207 5.074-3 7 .207-2.741 1.207-5.074 3-7Z" />
    <path fill="#000000" d="M447.5 530.5a98.215 98.215 0 0 1-9 21 98.215 98.215 0 0 1 9-21Z" />
    <path fill="#000000" d="M438.5 551.5c-.903 4.389-2.569 8.389-5 12 .903-4.389 2.569-8.389 5-12Z" />
    <path fill="#000000" d="M433.5 563.5a271.366 271.366 0 0 1-12 30 163.954 163.954 0 0 1 12-30Z" />
    <path fill="#000000" d="M419.5 598.5c-.233 3.042-1.233 5.708-3 8 .233-3.042 1.233-5.708 3-8Z" />
    <path fill="#000000" d="M416.5 606.5c-.233 3.042-1.233 5.708-3 8 .233-3.042 1.233-5.708 3-8Z" />
    <path fill="#000000" d="M413.5 614.5c-.233 3.042-1.233 5.708-3 8 .233-3.042 1.233-5.708 3-8Z" />
    <path fill="#000000" d="M410.5 622.5a185.25 185.25 0 0 1-9 25c2.035-8.778 5.035-17.111 9-25Z" />
    <path fill="#000000" d="M399.5 653.5a379.706 379.706 0 0 1-12 36 228.1 228.1 0 0 1 12-36Z" />
    <path fill="#000000" d="M387.5 689.5c-23.329 73.971-39.996 149.304-50 226 8.481-77.246 25.148-152.579 50-226Z" />
    <path fill="#000000" d="M337.5 915.5a882.65 882.65 0 0 0-4 77c-.994 9.82-1.327 19.82-1 30-1.141-21.51-.975-43.177.5-65a390.333 390.333 0 0 1 4.5-42Z" />
    <path fill="#000000" d="M333.5 992.5c-.242 22.04.592 44.04 2.5 66 15.905 112.29 41.572 222.29 77 330 .667 2.33.667 4.67 0 7-.383.56-.883.89-1.5 1v-1c.518-1.08.852-2.24 1-3.5a2099.958 2099.958 0 0 1-75.5-311.5 631.004 631.004 0 0 1-4.5-58c-.327-10.18.006-20.18 1-30Z" />
  </clipPath>
</svg>
