<?xml version="1.0" encoding="UTF-8"?>
<!DOCTYPE svg PUBLIC "-//W3C//DTD SVG 1.1//EN" "http://www.w3.org/Graphics/SVG/1.1/DTD/svg11.dtd">
<svg xmlns="http://www.w3.org/2000/svg" version="1.1" width="590px" height="822px" style="shape-rendering:geometricPrecision; text-rendering:geometricPrecision; image-rendering:optimizeQuality; fill-rule:evenodd; clip-rule:evenodd" xmlns:xlink="http://www.w3.org/1999/xlink">
<g><path  fill="#000000" d="M 579.5,5.5 C 445.167,5.5 310.833,5.5 176.5,5.5C 175.833,5.5 175.167,5.5 174.5,5.5C 175.263,4.73209 176.263,4.23209 177.5,4C 310.833,3.33333 444.167,3.33333 577.5,4C 578.416,4.27842 579.082,4.77842 579.5,5.5 Z"/></g>
<g><path  fill="#000000" d="M 174.5,5.5 C 174.338,7.5273 174.505,9.5273 175,11.5C 197.89,49.4893 216.556,89.4893 231,131.5C 236.868,148.103 242.534,164.77 248,181.5C 256.576,217.811 256.576,254.145 248,290.5C 236.178,338.966 217.512,384.632 192,427.5C 162.629,476.878 128.629,522.878 90,565.5C 71.7222,582.955 53.7222,600.622 36,618.5C 15.8082,641.742 6.80824,668.742 9,699.5C 11.4572,714.409 17.6239,727.409 27.5,738.5C 28.4194,741.089 30.086,743.089 32.5,744.5C 33.8818,746.549 35.5484,748.215 37.5,749.5C 40.6187,753.957 44.6187,757.291 49.5,759.5C 56.4823,765.998 64.4823,770.998 73.5,774.5C 76.5154,776.674 79.8487,778.341 83.5,779.5C 101.869,788.457 121.203,794.957 141.5,799C 172.251,804.602 203.251,807.935 234.5,809C 349.864,811.456 464.53,804.623 578.5,788.5C 579.168,527.598 579.834,266.598 580.5,5.5C 582.828,6.73564 583.994,8.73564 584,11.5C 584.997,271.875 584.663,532.209 583,792.5C 578.966,796.291 574.133,798.125 568.5,798C 453.628,813.228 338.295,819.228 222.5,816C 188.379,814.527 154.712,809.86 121.5,802C 94.5513,794.357 69.5513,782.69 46.5,767C 2.29403,733.312 -7.5393,691.478 17,641.5C 22.8906,631.61 29.5573,622.277 37,613.5C 116.483,542.203 178.15,457.87 222,360.5C 235.522,328.932 244.356,296.099 248.5,262C 250.663,238.316 249.496,214.816 245,191.5C 227.474,130.574 203.141,72.574 172,17.5C 169.463,12.6796 170.296,8.67956 174.5,5.5 Z"/></g>
<g><path  fill="#000000" d="M 176.5,6.5 C 310.5,6.5 444.5,6.5 578.5,6.5C 578.5,8.83333 578.5,11.1667 578.5,13.5C 577.684,11.8564 576.35,10.6897 574.5,10C 443.167,9.33333 311.833,9.33333 180.5,10C 179.473,10.5133 178.473,11.0133 177.5,11.5C 175.655,10.0045 175.322,8.33787 176.5,6.5 Z"/></g>
<g><path  fill="#000000" d="M 578.5,13.5 C 578.5,271.5 578.5,529.5 578.5,787.5C 577.209,787.263 576.209,787.596 575.5,788.5C 574.167,788.5 572.833,788.5 571.5,788.5C 572.531,787.751 573.698,787.085 575,786.5C 575.667,528.833 575.667,271.167 575,13.5C 443.902,12.1679 312.735,12.1679 181.5,13.5C 181.291,14.086 180.957,14.586 180.5,15C 182.601,18.3663 184.268,21.8663 185.5,25.5C 182.331,21.167 179.664,16.5003 177.5,11.5C 178.473,11.0133 179.473,10.5133 180.5,10C 311.833,9.33333 443.167,9.33333 574.5,10C 576.35,10.6897 577.684,11.8564 578.5,13.5 Z"/></g>
<g><path  fill="#000000" d="M 571.5,788.5 C 462.964,802.679 353.964,809.179 244.5,808C 201.862,807.404 159.862,802.07 118.5,792C 106.608,788.315 94.9415,784.148 83.5,779.5C 79.8487,778.341 76.5154,776.674 73.5,774.5C 65.5081,769.503 57.5081,764.503 49.5,759.5C 45.7977,755.797 41.7977,752.463 37.5,749.5C 36.8333,746.833 35.1667,745.167 32.5,744.5C 31.5806,741.911 29.914,739.911 27.5,738.5C 27.5,737.833 27.5,737.167 27.5,736.5C 8.41248,706.849 7.57914,676.516 25,645.5C 29.9436,637.557 35.277,629.891 41,622.5C 117.691,553.819 178.358,473.152 223,380.5C 241.98,340.893 253.646,299.226 258,255.5C 259.539,233.972 258.206,212.638 254,191.5C 238.95,137.737 218.617,86.0702 193,36.5C 192.329,35.7476 191.496,35.4142 190.5,35.5C 188.804,32.1499 187.137,28.8165 185.5,25.5C 184.268,21.8663 182.601,18.3663 180.5,15C 180.957,14.586 181.291,14.086 181.5,13.5C 312.735,12.1679 443.902,12.1679 575,13.5C 575.667,271.167 575.667,528.833 575,786.5C 573.698,787.085 572.531,787.751 571.5,788.5 Z"/></g>
<g><path  fill="#000000" d="M 190.5,35.5 C 191.496,35.4142 192.329,35.7476 193,36.5C 218.617,86.0702 238.95,137.737 254,191.5C 258.206,212.638 259.539,233.972 258,255.5C 253.646,299.226 241.98,340.893 223,380.5C 178.358,473.152 117.691,553.819 41,622.5C 35.277,629.891 29.9436,637.557 25,645.5C 7.57914,676.516 8.41248,706.849 27.5,736.5C 18.638,726.105 12.9713,714.105 10.5,700.5C 10.6765,669.473 20.8431,642.139 41,618.5C 118.998,548.303 180.498,465.637 225.5,370.5C 247.318,323.908 257.818,274.908 257,223.5C 256.768,222.263 256.268,221.263 255.5,220.5C 255.167,209.342 253.667,198.342 251,187.5C 236.079,134.671 215.912,84.0041 190.5,35.5 Z"/></g>
<g><path  fill="#000000" d="M 255.5,220.5 C 256.268,221.263 256.768,222.263 257,223.5C 257.818,274.908 247.318,323.908 225.5,370.5C 180.498,465.637 118.998,548.303 41,618.5C 20.8431,642.139 10.6765,669.473 10.5,700.5C 8.08333,684.665 9.91666,669.332 16,654.5C 23.0932,638.631 32.4265,624.297 44,611.5C 123.439,540.386 184.772,456.052 228,358.5C 240.876,327.999 249.542,296.332 254,263.5C 255.297,249.198 255.797,234.865 255.5,220.5 Z"/></g>
<g><path  fill="#000000" d="M 174.5,5.5 C 175.167,5.5 175.833,5.5 176.5,5.5C 176.5,5.83333 176.5,6.16667 176.5,6.5C 175.322,8.33787 175.655,10.0045 177.5,11.5C 179.664,16.5003 182.331,21.167 185.5,25.5C 187.137,28.8165 188.804,32.1499 190.5,35.5C 215.912,84.0041 236.079,134.671 251,187.5C 253.667,198.342 255.167,209.342 255.5,220.5C 255.797,234.865 255.297,249.198 254,263.5C 249.542,296.332 240.876,327.999 228,358.5C 184.772,456.052 123.439,540.386 44,611.5C 32.4265,624.297 23.0932,638.631 16,654.5C 9.91666,669.332 8.08333,684.665 10.5,700.5C 12.9713,714.105 18.638,726.105 27.5,736.5C 27.5,737.167 27.5,737.833 27.5,738.5C 17.6239,727.409 11.4572,714.409 9,699.5C 6.80824,668.742 15.8082,641.742 36,618.5C 53.7222,600.622 71.7222,582.955 90,565.5C 128.629,522.878 162.629,476.878 192,427.5C 217.512,384.632 236.178,338.966 248,290.5C 256.576,254.145 256.576,217.811 248,181.5C 242.534,164.77 236.868,148.103 231,131.5C 216.556,89.4893 197.89,49.4893 175,11.5C 174.505,9.5273 174.338,7.5273 174.5,5.5 Z"/></g>
<g><path fill="#000000" d="M 176.5,6.5 C 176.5,6.16667 176.5,5.83333 176.5,5.5C 310.833,5.5 445.167,5.5 579.5,5.5C 579.833,5.5 580.167,5.5 580.5,5.5C 579.834,266.598 579.168,527.598 578.5,788.5C 577.5,788.5 576.5,788.5 575.5,788.5C 576.209,787.596 577.209,787.263 578.5,787.5C 578.5,529.5 578.5,271.5 578.5,13.5C 578.5,11.1667 578.5,8.83333 578.5,6.5C 444.5,6.5 310.5,6.5 176.5,6.5 Z"/></g>
<g><path  fill="#000000" d="M 27.5,738.5 C 29.914,739.911 31.5806,741.911 32.5,744.5C 30.086,743.089 28.4194,741.089 27.5,738.5 Z"/></g>
<g><path  fill="#000000" d="M 32.5,744.5 C 35.1667,745.167 36.8333,746.833 37.5,749.5C 35.5484,748.215 33.8818,746.549 32.5,744.5 Z"/></g>
<g><path  fill="#000000" d="M 37.5,749.5 C 41.7977,752.463 45.7977,755.797 49.5,759.5C 44.6187,757.291 40.6187,753.957 37.5,749.5 Z"/></g>
<g><path fill="#000000" d="M 49.5,759.5 C 57.5081,764.503 65.5081,769.503 73.5,774.5C 64.4823,770.998 56.4823,765.998 49.5,759.5 Z"/></g>
<g><path  fill="#000000" d="M 83.5,779.5 C 94.9415,784.148 106.608,788.315 118.5,792C 159.862,802.07 201.862,807.404 244.5,808C 353.964,809.179 462.964,802.679 571.5,788.5C 572.833,788.5 574.167,788.5 575.5,788.5C 576.5,788.5 577.5,788.5 578.5,788.5C 464.53,804.623 349.864,811.456 234.5,809C 203.251,807.935 172.251,804.602 141.5,799C 121.203,794.957 101.869,788.457 83.5,779.5 Z"/></g>
</svg>
